<svg width="208" height="235" viewBox="0 0 208 235" fill="none" xmlns="http://www.w3.org/2000/svg">
<path d="M197.688 72.0312H162.469V63.625C162.469 31.2944 136.174 5 103.844 5C71.5132 5 45.2188 31.2944 45.2188 63.625V72.0312H10H5V77.0312V190.984C5 212.256 22.2439 229.5 43.5156 229.5H164.172C185.444 229.5 202.688 212.256 202.688 190.984V77.0312V72.0312H197.688ZM82.0312 63.625C82.0312 51.6018 91.8206 41.8125 103.844 41.8125C115.867 41.8125 125.656 51.6018 125.656 63.625V72.0312H82.0312V63.625ZM144.062 108.898C141.271 108.898 139.008 106.635 139.008 103.844C139.008 101.052 141.271 98.7891 144.062 98.7891C146.854 98.7891 149.117 101.052 149.117 103.844C149.117 106.635 146.854 108.898 144.062 108.898ZM63.625 108.898C60.8333 108.898 58.5703 106.635 58.5703 103.844C58.5703 101.052 60.8333 98.7891 63.625 98.7891C66.4167 98.7891 68.6797 101.052 68.6797 103.844C68.6797 106.635 66.4167 108.898 63.625 108.898Z" fill="#253544" stroke="white" stroke-width="10"/>
<path d="M129.273 139.818L119.636 142.545C119.03 140.939 118.136 139.379 116.955 137.864C115.803 136.318 114.227 135.045 112.227 134.045C110.227 133.045 107.667 132.545 104.545 132.545C100.273 132.545 96.7121 133.53 93.8636 135.5C91.0455 137.439 89.6364 139.909 89.6364 142.909C89.6364 145.576 90.6061 147.682 92.5455 149.227C94.4848 150.773 97.5152 152.061 101.636 153.091L112 155.636C118.242 157.152 122.894 159.47 125.955 162.591C129.015 165.682 130.545 169.667 130.545 174.545C130.545 178.545 129.394 182.121 127.091 185.273C124.818 188.424 121.636 190.909 117.545 192.727C113.455 194.545 108.697 195.455 103.273 195.455C96.1515 195.455 90.2576 193.909 85.5909 190.818C80.9242 187.727 77.9697 183.212 76.7273 177.273L86.9091 174.727C87.8788 178.485 89.7121 181.303 92.4091 183.182C95.1364 185.061 98.697 186 103.091 186C108.091 186 112.061 184.939 115 182.818C117.97 180.667 119.455 178.091 119.455 175.091C119.455 172.667 118.606 170.636 116.909 169C115.212 167.333 112.606 166.091 109.091 165.273L97.4545 162.545C91.0606 161.03 86.3636 158.682 83.3636 155.5C80.3939 152.288 78.9091 148.273 78.9091 143.455C78.9091 139.515 80.0152 136.03 82.2273 133C84.4697 129.97 87.5152 127.591 91.3636 125.864C95.2424 124.136 99.6364 123.273 104.545 123.273C111.455 123.273 116.879 124.788 120.818 127.818C124.788 130.848 127.606 134.848 129.273 139.818Z" fill="white"/>
</svg>
